<svg width="64" height="59" viewBox="0 0 64 59" fill="none" xmlns="http://www.w3.org/2000/svg">
<g clip-path="url(#clip0_1636_1056)">
<path d="M22.1873 0C18.1346 0 14.8123 3.32234 14.8123 7.375V19.6667H19.7289V7.375C19.7289 5.99259 20.8049 4.91667 22.1873 4.91667H56.6039C57.9863 4.91667 59.0623 5.99259 59.0623 7.375V51.625C59.0623 53.0074 57.9863 54.0833 56.6039 54.0833H39.3956V59H56.6039C60.6566 59 63.9789 55.6777 63.9789 51.625V7.375C63.9789 3.32234 60.6566 0 56.6039 0H22.1873Z" fill="#6BFF50"/>
<path d="M44.3123 13.6621H24.6456V18.5788H44.3123V13.6621Z" fill="#6BFF50"/>
<path d="M54.1446 13.6621H49.2279V18.5788H54.1446V13.6621Z" fill="#6BFF50"/>
<path d="M44.3112 23.4955H39.3945V28.4121H44.3112V23.4955Z" fill="#6BFF50"/>
<path d="M54.1446 23.4955H49.2279V28.4121H54.1446V23.4955Z" fill="#6BFF50"/>
<path d="M44.3112 33.3287H39.3945V38.2454H44.3112V33.3287Z" fill="#6BFF50"/>
<path d="M54.1446 33.3287H49.2279V38.2454H54.1446V33.3287Z" fill="#6BFF50"/>
<path d="M44.3112 43.1621H39.3945V48.0788H44.3112V43.1621Z" fill="#6BFF50"/>
<path d="M54.1446 43.1621H49.2279V48.0788H54.1446V43.1621Z" fill="#6BFF50"/>
<path d="M23.0959 25.6702C20.4723 25.6702 18.089 26.1103 16.2458 26.9015C15.3242 27.2917 14.533 27.7731 13.9222 28.3937C13.3017 29.0251 12.8409 29.8663 12.8409 30.7977V38.6487C12.0192 38.5585 11.1683 38.4889 10.2771 38.4889C7.65358 38.4889 5.27023 38.9291 3.42703 39.7203C2.50542 40.1104 1.71424 40.5919 1.10346 41.2124C0.482896 41.8439 0.0220947 42.685 0.0220947 43.6164V53.8714C0.0220947 54.8028 0.482896 55.644 1.10346 56.2754C1.71424 56.896 2.50542 57.3774 3.42703 57.7676C5.27023 58.5588 7.65358 58.9989 10.2771 58.9989C12.9006 58.9989 15.284 58.5588 17.1272 57.7676C18.0488 57.3774 18.84 56.896 19.4508 56.2754C20.0713 55.644 20.5321 54.8028 20.5321 53.8714V51.1371C21.3537 51.237 22.2047 51.3077 23.0959 51.3077C25.7194 51.3077 28.1027 50.8675 29.9459 50.0763C30.8675 49.6862 31.6587 49.2047 32.2695 48.5842C32.8901 47.9528 33.3509 47.1116 33.3509 46.1802V30.7977C33.3509 29.8663 32.8901 29.0251 32.2695 28.3937C31.6587 27.7731 30.8675 27.2917 29.9459 26.9015C28.1027 26.1103 25.7194 25.6702 23.0959 25.6702ZM23.0959 28.2339C25.4292 28.2339 27.5322 28.6545 28.9341 29.2555C29.6351 29.5555 30.1655 29.9065 30.4567 30.1967C30.7371 30.4966 30.7871 30.6673 30.7871 30.7977C30.7871 30.9281 30.7371 31.0976 30.4567 31.3987C30.1666 31.6888 29.6351 32.0399 28.9341 32.3398C27.5322 32.9408 25.4292 33.3614 23.0959 33.3614C20.7625 33.3614 18.6596 32.9408 17.2576 32.3398C16.5566 32.0399 16.0263 31.6888 15.7459 31.3987C15.4557 31.0987 15.4057 30.9281 15.4057 30.7977C15.4057 30.6673 15.4557 30.4977 15.7459 30.1967C16.0263 29.9065 16.5566 29.5555 17.2576 29.2555C18.6596 28.6545 20.7625 28.2339 23.0959 28.2339ZM15.4046 34.2635C15.6752 34.4037 15.9458 34.5634 16.2458 34.6938C18.089 35.485 20.4723 35.9252 23.0959 35.9252C25.7194 35.9252 28.1027 35.485 29.9459 34.6938C30.2459 34.5634 30.5165 34.4037 30.7871 34.2635V35.9263C30.7871 36.0567 30.7371 36.2262 30.4567 36.5273C30.1666 36.8174 29.6351 37.1685 28.9341 37.4684C27.5322 38.0694 25.4292 38.49 23.0959 38.49C20.7625 38.49 18.6596 38.0694 17.2576 37.4684C16.5566 37.1685 16.0263 36.8174 15.7459 36.5273C15.4557 36.2273 15.4057 36.0567 15.4057 35.9263V34.2635H15.4046ZM30.7871 39.391V41.0538C30.7871 41.1842 30.7371 41.3537 30.4567 41.6548C30.1666 41.9449 29.6351 42.296 28.9341 42.5959C27.5322 43.1969 25.4292 43.6175 23.0959 43.6175C22.184 43.6175 21.3233 43.5577 20.5126 43.4371C20.4626 42.5764 20.0322 41.8047 19.4508 41.2135C19.2106 40.9733 18.9204 40.7625 18.6291 40.5528C19.9811 40.8734 21.4831 41.0538 23.0959 41.0538C25.7194 41.0538 28.1027 40.6136 29.9459 39.8224C30.2459 39.692 30.5165 39.5323 30.7871 39.3921V39.391ZM10.2771 41.0538C12.6105 41.0538 14.7134 41.4744 16.1154 42.0754C16.8164 42.3753 17.3467 42.7263 17.6271 43.0165C17.9173 43.3165 17.9673 43.4871 17.9673 43.6175C17.9673 43.7479 17.9173 43.9175 17.6271 44.2185C17.3467 44.5087 16.8164 44.8597 16.1154 45.1597C14.7134 45.7607 12.6105 46.1813 10.2771 46.1813C7.94375 46.1813 5.8408 45.7607 4.43884 45.1597C3.73785 44.8597 3.20749 44.5087 2.9271 44.2185C2.63693 43.9186 2.58693 43.7479 2.58693 43.6175C2.58693 43.4871 2.63693 43.3176 2.9271 43.0165C3.20749 42.7263 3.73785 42.3753 4.43884 42.0754C5.8408 41.4744 7.94375 41.0538 10.2771 41.0538ZM30.7871 44.5185V46.1813C30.7871 46.3117 30.7371 46.4812 30.4567 46.7823C30.1666 47.0724 29.6351 47.4235 28.9341 47.7234C27.5322 48.3244 25.4292 48.745 23.0959 48.745C22.1949 48.745 21.3331 48.6853 20.5321 48.5744V46.0106C21.3537 46.1106 22.2047 46.1813 23.0959 46.1813C25.7194 46.1813 28.1027 45.7411 29.9459 44.9499C30.2459 44.8195 30.5165 44.6598 30.7871 44.5196V44.5185ZM2.58585 47.0822C2.85646 47.2224 3.12707 47.3822 3.42703 47.5126C5.27023 48.3038 7.65358 48.7439 10.2771 48.7439C12.9006 48.7439 15.284 48.3038 17.1272 47.5126C17.4271 47.3822 17.6978 47.2224 17.9684 47.0822V48.745C17.9684 48.8754 17.9184 49.045 17.6282 49.346C17.3478 49.6362 16.8174 49.9872 16.1165 50.2872C14.7145 50.8882 12.6115 51.3088 10.2782 51.3088C7.94484 51.3088 5.84189 50.8882 4.43992 50.2872C3.73894 49.9872 3.20858 49.6362 2.92819 49.346C2.63801 49.0461 2.58802 48.8754 2.58802 48.745V47.0822H2.58585ZM2.58585 52.2C2.85646 52.3499 3.12707 52.5108 3.42703 52.6401C5.27023 53.4313 7.65358 53.8714 10.2771 53.8714C12.9006 53.8714 15.284 53.4313 17.1272 52.6401C17.4271 52.5097 17.6978 52.3499 17.9684 52.2V53.8725C17.9684 54.0029 17.9184 54.1725 17.6282 54.4735C17.3478 54.7637 16.8174 55.1147 16.1165 55.4147C14.7145 56.0157 12.6115 56.4363 10.2782 56.4363C7.94484 56.4363 5.84189 56.0157 4.43992 55.4147C3.73894 55.1147 3.20858 54.7637 2.92819 54.4735C2.63801 54.1736 2.58802 54.0029 2.58802 53.8725V52.2H2.58585Z" fill="#6BFF50"/>
</g>
<defs>
<clipPath id="clip0_1636_1056">
<rect width="63.9558" height="59" fill="white" transform="translate(0.0220947)"/>
</clipPath>
</defs>
</svg>
