<svg width="80" height="80" viewBox="0 0 80 80" fill="none" xmlns="http://www.w3.org/2000/svg">
<path d="M18.8099 6.66667C14.885 6.66667 11.667 9.88468 11.667 13.8095V56.6667C11.667 60.5915 14.885 63.8095 18.8099 63.8095H21.1908V66.1905C21.1908 70.1153 24.4088 73.3333 28.3337 73.3333H61.667C65.5918 73.3333 68.8099 70.1153 68.8099 66.1905V23.3333C68.8099 19.4085 65.5918 16.1905 61.667 16.1905H59.286V13.8095C59.286 9.88468 56.068 6.66667 52.1432 6.66667H18.8099ZM18.8099 11.4286H52.1432C53.4825 11.4286 54.5241 12.4702 54.5241 13.8095V56.6667C54.5241 58.006 53.4825 59.0476 52.1432 59.0476H18.8099C17.4706 59.0476 16.4289 58.006 16.4289 56.6667V13.8095C16.4289 12.4702 17.4706 11.4286 18.8099 11.4286ZM59.286 20.9524H61.667C63.0063 20.9524 64.0479 21.9941 64.0479 23.3333V66.1905C64.0479 67.5298 63.0063 68.5714 61.667 68.5714H28.3337C26.9944 68.5714 25.9527 67.5298 25.9527 66.1905V63.8095H52.1432C56.068 63.8095 59.286 60.5915 59.286 56.6667V20.9524Z" fill="#6BFF50"/>
<path d="M40.1338 31.6168H36.2085C34.8416 31.6168 33.7335 30.5087 33.7335 29.1417C33.7335 27.7748 34.8416 26.6667 36.2085 26.6667H47.2325C47.9788 26.6667 48.5838 27.2716 48.5838 28.0179V39.0419C48.5838 40.4089 47.4757 41.517 46.1087 41.517C44.7418 41.517 43.6337 40.4089 43.6337 39.0419V35.1166L32.0837 46.6667L28.531 43.1324L25.0003 46.6667L21.667 42.9167L28.3339 35.8685L32.0837 39.6669L40.1338 31.6168Z" fill="#6BFF50"/>
</svg>
