<svg width="80" height="80" viewBox="0 0 80 80" fill="none" xmlns="http://www.w3.org/2000/svg">
<path d="M19.2969 7.5C15.332 7.5 12.5 11.0742 12.5 15V55C12.5 58.9258 15.332 62.5 19.2969 62.5H22.5V57.5H19.2969C18.5156 57.5 17.5 56.582 17.5 55V15C17.5 13.418 18.5156 12.5 19.2969 12.5H52.0898C51.1523 9.58984 48.6523 7.5 45.7031 7.5H19.2969ZM34.2969 17.5C30.332 17.5 27.5 21.0742 27.5 25V65C27.5 68.9258 30.332 72.5 34.2969 72.5H60.7031C64.668 72.5 67.5 68.9258 67.5 65V25C67.5 21.0742 64.668 17.5 60.7031 17.5H34.2969ZM34.2969 22.5H60.7031C61.4844 22.5 62.5 23.418 62.5 25V65C62.5 66.582 61.4844 67.5 60.7031 67.5H34.2969C33.5156 67.5 32.5 66.582 32.5 65V25C32.5 23.418 33.5156 22.5 34.2969 22.5ZM42.5 57.5V62.5H52.5V57.5H42.5Z" fill="#461CDC"/>
</svg>
