<svg width="80" height="80" viewBox="0 0 80 80" fill="none" xmlns="http://www.w3.org/2000/svg">
<path d="M22.5 7.5V12.5H27.5V7.5H22.5ZM32.5 7.5V12.5H37.5V7.5H32.5ZM42.5 7.5V12.5H47.5V7.5H42.5ZM52.5 7.5V12.5H57.5V7.5H52.5ZM25 17.5C20.8873 17.5 17.5 20.8873 17.5 25V55C17.5 59.1127 20.8873 62.5 25 62.5H55C59.1127 62.5 62.5 59.1127 62.5 55V25C62.5 20.8873 59.1127 17.5 55 17.5H25ZM7.5 22.5V27.5H12.5V22.5H7.5ZM25 22.5H55C56.4073 22.5 57.5 23.5927 57.5 25V55C57.5 56.4073 56.4073 57.5 55 57.5H25C23.5927 57.5 22.5 56.4073 22.5 55V25C22.5 23.5927 23.5927 22.5 25 22.5ZM67.5 22.5V27.5H72.5V22.5H67.5ZM30 27.5C29.337 27.5001 28.7011 27.7635 28.2323 28.2323C27.7635 28.7011 27.5001 29.337 27.5 30V50C27.5001 50.663 27.7635 51.2989 28.2323 51.7677C28.7011 52.2365 29.337 52.4999 30 52.5H50C50.663 52.4999 51.2989 52.2365 51.7677 51.7677C52.2365 51.2989 52.4999 50.663 52.5 50V30C52.4999 29.337 52.2365 28.7011 51.7677 28.2323C51.2989 27.7635 50.663 27.5001 50 27.5H30ZM7.5 32.5V37.5H12.5V32.5H7.5ZM32.5 32.5H47.5V47.5H32.5V32.5ZM67.5 32.5V37.5H72.5V32.5H67.5ZM7.5 42.5V47.5H12.5V42.5H7.5ZM67.5 42.5V47.5H72.5V42.5H67.5ZM7.5 52.5V57.5H12.5V52.5H7.5ZM67.5 52.5V57.5H72.5V52.5H67.5ZM22.5 67.5V72.5H27.5V67.5H22.5ZM32.5 67.5V72.5H37.5V67.5H32.5ZM42.5 67.5V72.5H47.5V67.5H42.5ZM52.5 67.5V72.5H57.5V67.5H52.5Z" fill="#6BFF50"/>
</svg>
