<svg width="80" height="80" viewBox="0 0 80 80" fill="none" xmlns="http://www.w3.org/2000/svg">
<path d="M55.9953 9.16663C50.0691 9.16663 45.1703 13.6434 44.3997 19.3678C38.8771 21.276 34.859 26.4866 34.859 32.6514C34.859 40.4124 41.1889 46.7423 48.9499 46.7423C56.7108 46.7423 63.0407 40.4124 63.0407 32.6514C63.0407 31.9542 62.9306 31.257 62.8206 30.5965C65.9763 28.5416 67.7377 24.9455 67.7377 20.909C67.7377 14.4507 62.4536 9.16663 55.9953 9.16663ZM55.9953 13.8636C59.9033 13.8636 63.0407 17.001 63.0407 20.909C63.0407 23.1841 62.4353 24.7987 61.261 25.9362C58.9125 21.6796 54.4908 18.744 49.3719 18.5972C50.3076 15.8451 52.8946 13.8636 55.9953 13.8636ZM48.9499 23.2575C54.1605 23.2575 58.3438 27.4407 58.3438 32.6514C58.3438 37.8621 54.1605 42.0453 48.9499 42.0453C43.7392 42.0453 39.556 37.8621 39.556 32.6514C39.556 27.4407 43.7392 23.2575 48.9499 23.2575ZM25.4651 42.0453C22.8781 42.0453 20.1076 42.7425 20.1076 42.7425C20.0159 42.7609 19.9242 42.7792 19.8508 42.8159L8.25516 46.8707C7.02588 47.2927 6.38372 48.6137 6.78736 49.8246L11.4843 63.9155C11.7045 64.5393 12.1448 65.0347 12.7319 65.3099C13.3191 65.5851 13.9979 65.6035 14.6034 65.3649L25.355 61.0533L40.2899 68.4106L40.0146 68.2639C43.4456 70.5389 47.8307 70.8508 51.5552 69.0895C51.6653 69.0344 51.7754 68.9794 51.8671 68.906L71.4072 55.7325L73.3337 54.4299L70.7283 50.5218L68.7651 51.8429L49.5003 64.8512C47.2619 65.8787 44.6749 65.7136 42.62 64.3558C42.5282 64.3008 42.4549 64.2458 42.3448 64.2091L26.4926 56.3747C25.9054 56.0811 25.2082 56.0628 24.5844 56.3013L15.1538 60.0809L11.998 50.5402L21.2452 47.2927C21.3553 47.2743 23.8505 46.7423 25.4651 46.7423C27.6301 46.7423 28.8043 46.8156 31.0611 48.577C35.0975 51.7695 36.8956 53.6593 39.6477 54.8335C42.3998 56.0261 45.3905 56.1362 51.2983 56.1362H53.6468V51.4392H51.2983C45.4638 51.4392 43.1704 51.2557 41.5191 50.5218C39.8679 49.8063 38.1432 48.1734 33.96 44.9075C30.9326 42.5223 27.997 42.0453 25.4651 42.0453Z" fill="#461CDC"/>
</svg>
