<svg width="80" height="80" viewBox="0 0 80 80" fill="none" xmlns="http://www.w3.org/2000/svg">
<path d="M51.8593 9.16663C47.0045 9.16663 42.5945 9.98193 39.185 11.4458C37.4803 12.1684 36.0165 13.0579 34.8861 14.2067C33.7373 15.3741 32.8849 16.9305 32.8849 18.6538V33.181C31.3655 33.0143 29.7905 32.8846 28.1414 32.8846C23.2866 32.8846 18.8765 33.6999 15.4671 35.1637C13.7623 35.8864 12.2985 36.7758 11.1682 37.9246C10.0194 39.092 9.16699 40.6485 9.16699 42.3718V61.3461C9.16699 63.0694 10.0194 64.6259 11.1682 65.7932C12.2985 66.9421 13.7623 67.8315 15.4671 68.5541C18.8765 70.018 23.2866 70.8333 28.1414 70.8333C32.9961 70.8333 37.4062 70.018 40.8156 68.5541C42.5204 67.8315 43.9842 66.9421 45.1145 65.7932C46.2633 64.6259 47.1157 63.0694 47.1157 61.3461V56.2875C48.6351 56.4728 50.2102 56.6025 51.8593 56.6025C56.7141 56.6025 61.1241 55.7872 64.5336 54.3234C66.2383 53.6007 67.7022 52.7113 68.8325 51.5625C69.9813 50.3951 70.8337 48.8386 70.8337 47.1153V18.6538C70.8337 16.9305 69.9813 15.3741 68.8325 14.2067C67.7022 13.0579 66.2383 12.1684 64.5336 11.4458C61.1241 9.98193 56.7141 9.16663 51.8593 9.16663ZM51.8593 13.9102C56.1767 13.9102 60.0679 14.6885 62.6621 15.8002C63.9592 16.3561 64.9412 17.0047 65.4786 17.542C65.9974 18.0979 66.0901 18.4129 66.0901 18.6538C66.0901 18.8947 65.9974 19.2097 65.4786 19.7656C64.9412 20.3029 63.9592 20.9515 62.6621 21.5074C60.0679 22.6192 56.1767 23.3974 51.8593 23.3974C47.5419 23.3974 43.6507 22.6192 41.0565 21.5074C39.7594 20.9515 38.7774 20.3029 38.2585 19.7656C37.7212 19.2097 37.6285 18.8947 37.6285 18.6538C37.6285 18.4129 37.7212 18.0979 38.2585 17.542C38.7774 17.0047 39.7594 16.3561 41.0565 15.8002C43.6507 14.6885 47.5419 13.9102 51.8593 13.9102ZM37.6285 25.0651C38.1288 25.3245 38.6291 25.621 39.185 25.8618C42.5945 27.3257 47.0045 28.141 51.8593 28.141C56.7141 28.141 61.1241 27.3257 64.5336 25.8618C65.0895 25.621 65.5898 25.3245 66.0901 25.0651V28.141C66.0901 28.3819 65.9974 28.6969 65.4786 29.2528C64.9412 29.7901 63.9592 30.4387 62.6621 30.9946C60.0679 32.1063 56.1767 32.8846 51.8593 32.8846C47.5419 32.8846 43.6507 32.1063 41.0565 30.9946C39.7594 30.4387 38.7774 29.7901 38.2585 29.2528C37.7212 28.6969 37.6285 28.3819 37.6285 28.141V25.0651ZM66.0901 34.5522V37.6282C66.0901 37.869 65.9974 38.1841 65.4786 38.7399C64.9412 39.2773 63.9592 39.9258 62.6621 40.4817C60.0679 41.5935 56.1767 42.3718 51.8593 42.3718C50.1731 42.3718 48.5796 42.2606 47.0787 42.0382C46.986 40.4447 46.1892 39.0179 45.1145 37.9246C44.6698 37.4799 44.1324 37.0908 43.5951 36.7017C46.0966 37.2946 48.876 37.6282 51.8593 37.6282C56.7141 37.6282 61.1241 36.8129 64.5336 35.349C65.0895 35.1081 65.5898 34.8117 66.0901 34.5522ZM28.1414 37.6282C32.4588 37.6282 36.35 38.4064 38.9441 39.5182C40.2412 40.0741 41.2233 40.7226 41.7421 41.26C42.2795 41.8159 42.3721 42.1309 42.3721 42.3718C42.3721 42.6126 42.2795 42.9276 41.7421 43.4835C41.2233 44.0209 40.2412 44.6694 38.9441 45.2253C36.35 46.3371 32.4588 47.1153 28.1414 47.1153C23.8239 47.1153 19.9327 46.3371 17.3386 45.2253C16.0415 44.6694 15.0594 44.0209 14.5406 43.4835C14.0032 42.9276 13.9106 42.6126 13.9106 42.3718C13.9106 42.1309 14.0032 41.8159 14.5406 41.26C15.0594 40.7226 16.0415 40.0741 17.3386 39.5182C19.9327 38.4064 23.8239 37.6282 28.1414 37.6282ZM66.0901 44.0394V47.1153C66.0901 47.3562 65.9974 47.6712 65.4786 48.2271C64.9412 48.7645 63.9592 49.413 62.6621 49.9689C60.0679 51.0807 56.1767 51.8589 51.8593 51.8589C50.1916 51.8589 48.5981 51.7478 47.1157 51.5439V46.8003C48.6351 46.9856 50.2102 47.1153 51.8593 47.1153C56.7141 47.1153 61.1241 46.3 64.5336 44.8362C65.0895 44.5953 65.5898 44.2988 66.0901 44.0394ZM13.9106 48.783C14.4109 49.0424 14.9112 49.3389 15.4671 49.5798C18.8765 51.0436 23.2866 51.8589 28.1414 51.8589C32.9961 51.8589 37.4062 51.0436 40.8156 49.5798C41.3715 49.3389 41.8718 49.0424 42.3721 48.783V51.8589C42.3721 52.0998 42.2795 52.4148 41.7421 52.9707C41.2233 53.5081 40.2412 54.1566 38.9441 54.7125C36.35 55.8243 32.4588 56.6025 28.1414 56.6025C23.8239 56.6025 19.9327 55.8243 17.3386 54.7125C16.0415 54.1566 15.0594 53.5081 14.5406 52.9707C14.0032 52.4148 13.9106 52.0998 13.9106 51.8589V48.783ZM13.9106 58.2517C14.4109 58.5296 14.9112 58.8261 15.4671 59.067C18.8765 60.5308 23.2866 61.3461 28.1414 61.3461C32.9961 61.3461 37.4062 60.5308 40.8156 59.067C41.3715 58.8261 41.8718 58.5296 42.3721 58.2517V61.3461C42.3721 61.587 42.2795 61.902 41.7421 62.4579C41.2233 62.9953 40.2412 63.6438 38.9441 64.1997C36.35 65.3115 32.4588 66.0897 28.1414 66.0897C23.8239 66.0897 19.9327 65.3115 17.3386 64.1997C16.0415 63.6438 15.0594 62.9953 14.5406 62.4579C14.0032 61.902 13.9106 61.587 13.9106 61.3461V58.2517Z" fill="#461CDC"/>
</svg>
