<svg width="80" height="80" viewBox="0 0 80 80" fill="none" xmlns="http://www.w3.org/2000/svg">
<path fill-rule="evenodd" clip-rule="evenodd" d="M35.2564 9.16663C20.8774 9.16663 9.16663 20.8774 9.16663 35.2564C9.16663 44.9659 14.5217 53.4525 22.4153 57.9367C24.7501 61.902 28.0113 65.1076 31.8469 67.3312C33.2891 68.1672 36.4698 69.5647 40.7782 70.4998C42.0753 70.7036 43.3909 70.8333 44.7436 70.8333C59.1226 70.8333 70.8333 59.1226 70.8333 44.7436C70.8333 43.3909 70.7036 42.0753 70.4998 40.7782C69.5647 35.2288 67.3497 31.9396 67.3312 31.8469C65.1076 28.0113 61.902 24.7501 57.9367 22.4153C53.4525 14.5217 44.9659 9.16663 35.2564 9.16663ZM53.434 24.2498C49.691 18.0794 42.9832 13.9102 35.2564 13.9102C23.49 13.9102 13.9102 23.49 13.9102 35.2564C13.9102 42.6126 17.6532 49.1165 23.3233 52.9522L25.1206 53.9343C26.3992 54.6198 27.6963 55.1387 29.0119 55.5649C29.4566 55.7131 29.9013 55.8799 30.3645 55.991C30.7907 56.0837 31.2354 56.1578 31.6616 56.2319C32.8475 56.4358 34.0334 56.6025 35.2564 56.6025C47.0227 56.6025 56.6025 47.0227 56.6025 35.2564C56.6025 34.0334 56.4358 32.8475 56.2319 31.6616C56.1578 31.2354 56.0837 30.7907 55.991 30.3645C55.8799 29.9013 55.7131 29.4566 55.5649 29.0119C55.1387 27.6963 54.6198 26.3992 53.9343 25.1206L53.434 24.2498ZM62.9582 33.774C62.3652 32.8105 61.7352 31.8654 60.9755 30.9946C60.994 31.0872 60.9941 31.1798 60.9941 31.254C61.1979 32.5696 61.3461 33.8852 61.3461 35.2564C61.3461 44.2432 56.7693 52.1925 49.8207 56.8805C47.0598 58.752 43.9097 60.1232 40.5188 60.8273C38.8141 61.1608 37.0537 61.3461 35.2564 61.3461C33.8852 61.3461 32.5696 61.1979 31.254 60.9941C31.1798 60.9941 31.0872 60.994 30.9946 60.9755C31.8654 61.7352 32.8105 62.3652 33.774 62.9582L34.6078 63.4214C35.942 64.1441 37.3132 64.6815 38.7029 65.1262C38.816 65.1585 38.9291 65.1917 39.0426 65.225C39.4497 65.3445 39.8617 65.4654 40.2964 65.5523C40.6856 65.645 41.0932 65.7191 41.5009 65.7932C42.5756 65.96 43.6503 66.0897 44.7436 66.0897C56.5099 66.0897 66.0897 56.5099 66.0897 44.7436C66.0897 43.6503 65.96 42.5756 65.7932 41.5009C65.7191 41.0932 65.645 40.6856 65.5523 40.2964C65.4654 39.8617 65.3445 39.4497 65.225 39.0426L65.2243 39.0404C65.1912 38.9276 65.1583 38.8153 65.1262 38.7029C64.6815 37.3132 64.1441 35.942 63.4214 34.6078L62.9582 33.774Z" fill="#6BFF50"/>
<path d="M32.8846 18.6538V23.3974H30.5128C26.6586 23.3974 23.3974 26.6586 23.3974 30.5128C23.3974 34.3669 26.6586 37.6282 30.5128 37.6282H40C41.2229 37.6282 42.3718 38.777 42.3718 40C42.3718 41.2229 41.2229 42.3718 40 42.3718H23.3974V47.1153H32.8846V51.8589H37.6282V47.1153H40C43.8541 47.1153 47.1153 43.8541 47.1153 40C47.1153 36.1458 43.8541 32.8846 40 32.8846H30.5128C29.2898 32.8846 28.141 31.7357 28.141 30.5128C28.141 29.2898 29.2898 28.141 30.5128 28.141H42.3718V23.3974H37.6282V18.6538H32.8846Z" fill="#6BFF50"/>
</svg>
