<svg width="80" height="80" viewBox="0 0 80 80" fill="none" xmlns="http://www.w3.org/2000/svg">
<path d="M40.3743 9.16663C39.0938 9.16663 37.8141 9.59996 36.7707 10.4696L7.77439 34.6348C6.6994 35.5304 6.31676 37.0921 7.03061 38.2946C7.93979 39.8251 9.95173 40.1241 11.26 39.0337L12.27 38.1933V63.8257C12.27 67.6953 15.4163 70.8333 19.2961 70.8333H61.4526C65.3324 70.8333 68.4787 67.6953 68.4787 63.8257V38.1961L69.4887 39.0364C70.0142 39.4751 70.6512 39.6879 71.2864 39.6879C72.263 39.6879 73.2321 39.1824 73.7674 38.2097C74.4209 37.0213 74.0362 35.5201 72.9935 34.6512L43.9779 10.4696C42.9346 9.59996 41.6548 9.16663 40.3743 9.16663ZM40.3743 14.9862C40.5356 14.9862 40.6958 15.0411 40.8272 15.1504L62.8578 33.5097V62.4242C62.8578 63.9729 61.6001 65.2272 60.0474 65.2272H20.7013C19.1485 65.2272 17.8909 63.9729 17.8909 62.4242V33.507L39.9215 15.1504C40.0529 15.0411 40.2131 14.9862 40.3743 14.9862Z" fill="#6BFF50"/>
<path d="M38.0759 28.0229V32.737H35.6636C31.7861 32.737 28.5925 35.9306 28.5925 39.8081C28.5925 43.6856 31.7861 46.8792 35.6636 46.8792H39.1991H41.5562H45.0917C46.4186 46.8792 47.4488 47.9094 47.4488 49.2363C47.4488 50.5631 46.4186 51.5933 45.0917 51.5933H35.6636H28.5925V56.3074H35.6636H38.0759V61.0215H42.7899V56.3074H45.0917C48.9692 56.3074 52.1629 53.1137 52.1629 49.2363C52.1629 45.3588 48.9692 42.1652 45.0917 42.1652H41.5562H39.1991H35.6636C34.3367 42.1652 33.3066 41.135 33.3066 39.8081C33.3066 38.4813 34.3367 37.4511 35.6636 37.4511H47.4488V32.737H42.7899V28.0229H38.0759Z" fill="#6BFF50"/>
</svg>
