<svg width="80" height="80" viewBox="0 0 80 80" fill="none" xmlns="http://www.w3.org/2000/svg">
<path d="M13.8094 15.8333C9.88451 15.8333 6.6665 19.0513 6.6665 22.9762V56.3095C6.6665 60.2158 9.88451 63.4524 13.8094 63.4524H66.1903C70.1152 63.4524 73.3332 60.2344 73.3332 56.3095V22.9762C73.3332 19.0513 70.0966 15.8333 66.1903 15.8333H13.8094ZM13.8094 20.5952H66.1903C67.5296 20.5952 68.5713 21.6369 68.5713 22.9762V26.9444H11.4284V22.9762C11.4284 21.6183 12.4515 20.5952 13.8094 20.5952ZM11.4284 33.2936H68.5713V56.3095C68.5713 57.6488 67.5296 58.6905 66.1903 58.6905H13.8094C12.4701 58.6905 11.4284 57.6488 11.4284 56.3095V33.2936Z" fill="#6BFF50"/>
<path d="M56.6665 41.2301C56.6665 40.3535 57.3772 39.6428 58.2538 39.6428H63.0157C63.8924 39.6428 64.603 40.3535 64.603 41.2301V44.4047C64.603 45.2814 63.8924 45.992 63.0157 45.992H58.2538C57.3772 45.992 56.6665 45.2814 56.6665 44.4047V41.2301Z" fill="#6BFF50"/>
</svg>
