<svg width="80" height="80" viewBox="0 0 80 80" fill="none" xmlns="http://www.w3.org/2000/svg">
<path d="M20 7.5C15.8789 7.5 12.5 10.8789 12.5 15V50C12.5 53.2422 14.6094 55.9961 17.5 57.0312V65C17.5 69.1211 20.8789 72.5 25 72.5H45C49.1211 72.5 52.5 69.1211 52.5 65V57.0312C55.3906 55.9961 57.5 53.2422 57.5 50V15C57.5 10.8789 54.1211 7.5 50 7.5H20ZM20 12.5H50C51.4062 12.5 52.5 13.5938 52.5 15V50C52.5 51.4062 51.4062 52.5 50 52.5H20C18.5938 52.5 17.5 51.4062 17.5 50V15C17.5 13.5938 18.5938 12.5 20 12.5ZM22.5 17.5V27.5H47.5V17.5H22.5ZM62.5 17.5V47.5H67.5V17.5H62.5ZM22.5 32.5V37.5H27.5V32.5H22.5ZM32.5 32.5V37.5H37.5V32.5H32.5ZM42.5 32.5V37.5H47.5V32.5H42.5ZM22.5 42.5V47.5H27.5V42.5H22.5ZM32.5 42.5V47.5H37.5V42.5H32.5ZM42.5 42.5V47.5H47.5V42.5H42.5ZM22.5 57.5H37.5V67.5H25C23.5938 67.5 22.5 66.4062 22.5 65V57.5ZM42.5 57.5H47.5V65C47.5 66.4062 46.4062 67.5 45 67.5H42.5V57.5Z" fill="#6BFF50"/>
</svg>
