<svg width="80" height="80" viewBox="0 0 80 80" fill="none" xmlns="http://www.w3.org/2000/svg">
<path d="M15.7741 15.8334C12.1436 15.8334 9.16699 18.562 9.16699 21.8899V58.2292C9.16699 61.5572 12.1436 64.2858 15.7741 64.2858H64.2265C67.857 64.2858 70.8337 61.5572 70.8337 58.2292V21.8899C70.8337 18.562 67.857 15.8334 64.2265 15.8334H15.7741ZM15.7741 19.8711H64.2265C65.4654 19.8711 66.4289 20.7543 66.4289 21.8899V58.2292C66.4289 59.3648 65.4654 60.2481 64.2265 60.2481H15.7741C14.5353 60.2481 13.5718 59.3648 13.5718 58.2292V21.8899C13.5718 20.7543 14.5353 19.8711 15.7741 19.8711ZM58.8066 28.0411L51.0122 35.1859L47.6054 32.0788L44.5083 34.9178L49.4465 39.4602C50.3068 40.2488 51.7177 40.2488 52.578 39.4602L61.9381 30.8801L58.8066 28.0411ZM22.3813 31.9842V36.0219H40.0003V31.9842H22.3813ZM58.8066 40.1542L51.0122 47.299L47.6054 44.1919L44.5083 47.0309L49.4465 51.5891C50.3068 52.3619 51.7177 52.3619 52.578 51.5891L61.9381 42.9932L58.8066 40.1542ZM22.3813 44.0973V48.135H40.0003V44.0973H22.3813Z" fill="#6BFF50"/>
</svg>
