<svg width="80" height="80" viewBox="0 0 80 80" fill="none" xmlns="http://www.w3.org/2000/svg">
<path d="M52.2513 9.16669V13.4705C50.3885 13.7756 48.6862 14.5465 47.2088 15.6064L44.1254 12.5391L41.2348 15.4297L44.3181 18.513C43.2582 20.0065 42.5035 21.6927 42.1823 23.5556H37.8624V27.6667H42.1823C42.5035 29.5295 43.2582 31.2157 44.3181 32.7092L41.2348 35.7926L44.1254 38.6832L47.2088 35.6159C48.6862 36.6758 50.3885 37.4466 52.2513 37.7518V42.0556H56.3624V37.7518C58.2253 37.4466 59.9275 36.6758 61.405 35.6159L64.4722 38.6832L67.395 35.7926L64.3116 32.7092C65.3555 31.2157 66.1102 29.5295 66.4314 27.6667H70.7513V23.5556H66.4314C66.1102 21.6927 65.3555 20.0065 64.3116 18.513L67.395 15.4297L64.4722 12.5391L61.405 15.6064C59.9275 14.5465 58.2253 13.7756 56.3624 13.4705V9.16669H52.2513ZM31.9848 13.2778L31.0213 18.3685C27.1832 19.4766 23.6662 21.5161 20.7756 24.2943L15.8776 22.576L10 32.7574L13.9184 36.1137C13.4366 38.0729 13.1957 40.0482 13.1957 42.0556C13.1957 44.063 13.4366 46.0543 13.9184 47.9974L10 51.3538L15.8776 61.5352L20.7756 59.8008C23.6662 62.6111 27.1832 64.6346 31.0213 65.7426L31.9848 70.8334H43.74L44.6714 65.7426C48.5417 64.6346 52.0425 62.6111 54.9492 59.8169L59.8312 61.5352L65.7088 51.3538L61.8064 47.9974C62.1115 46.7127 62.3043 45.4119 62.4006 44.1111L58.2734 44.079C58.145 45.444 57.9201 46.793 57.5187 48.0938L57.1172 49.3785L60.4575 52.2531L57.9844 56.5087L53.809 55.0473L52.8937 56.043C50.0673 59.0621 46.454 61.1498 42.4553 62.0812L41.1385 62.3702L40.3355 66.7222H35.3893L34.5864 62.3702L33.2695 62.0812C29.2548 61.1498 25.6576 59.0621 22.8312 56.043L21.8997 55.0473L17.7244 56.5248L15.2674 52.2531L18.6076 49.3785L18.2062 48.0938C17.612 46.1506 17.3069 44.1111 17.3069 42.0556C17.3069 40.0161 17.612 37.9766 18.2062 36.0174L18.6076 34.7327L15.2674 31.8581L17.7244 27.5864L21.9158 29.0478L22.8312 28.0682C25.6576 25.033 29.2548 22.9614 33.2695 22.046L34.5864 21.7248L35.3893 17.3889H36.8025L37.3485 13.2778H31.9848ZM54.3069 17.3889C58.8676 17.3889 62.5291 21.0504 62.5291 25.6111C62.5291 30.1719 58.8676 33.8334 54.3069 33.8334C49.7461 33.8334 46.0846 30.1719 46.0846 25.6111C46.0846 21.0504 49.7461 17.3889 54.3069 17.3889ZM35.4054 29.9792C29.7847 31.1194 25.5291 36.0977 25.5291 42.0556C25.5291 48.8485 31.0694 54.3889 37.8624 54.3889C44.013 54.3889 49.0877 49.8442 50.003 43.9184C48.6059 43.8381 47.273 43.5812 45.9722 43.1476C45.4262 47.1623 42.0217 50.2778 37.8624 50.2778C33.3338 50.2778 29.6402 46.5842 29.6402 42.0556C29.6402 38.1051 32.4345 34.829 36.128 34.0261C35.6784 32.7574 35.4696 31.3924 35.4054 29.9792Z" fill="#6BFF50"/>
</svg>
