<?xml version="1.0" encoding="utf-8"?>
<!-- Generator: Adobe Illustrator 29.6.1, SVG Export Plug-In . SVG Version: 9.03 Build 0)  -->
<svg version="1.1" id="Camada_1" xmlns="http://www.w3.org/2000/svg" xmlns:xlink="http://www.w3.org/1999/xlink" x="0px" y="0px"
	 viewBox="0 0 80 80" style="enable-background:new 0 0 80 80;" xml:space="preserve">
<style type="text/css">
	.st0{fill:#6BFF50;}
</style>
<g>
	<path class="st0" d="M17,35.8c-0.8-0.9-2.2-1-3.1-0.2c-0.9,0.8-1,2.2-0.2,3.1l11.7,13.4c0.4,0.5,1,0.7,1.6,0.7c0.1,0,0.1,0,0.2,0
		c0,0,0,0,0,0c0.7,0,1.3-0.4,1.7-1L46.2,25c0.7-1,0.4-2.4-0.6-3c-0.4-0.2-0.8-0.4-1.2-0.3v-0.1c-0.7,0-1.4,0.4-1.8,1L26.8,47
		L17,35.8z"/>
	<path class="st0" d="M46.9,30.7C46.9,30.7,46.9,30.7,46.9,30.7c-0.1-0.2-0.1-0.3-0.2-0.4l-3,4.6l0,0c0.1,0.4,0.2,0.8,0.3,1.2
		c0.1,0.3,0.1,0.5,0.1,0.8c0,0.2,0.1,0.3,0.1,0.5c0,0,0,0.1,0,0.1c0.1,0.8,0.2,1.7,0.2,2.5c0,10.8-8.7,19.5-19.5,19.5
		c-5.1,0-9.7-1.9-13.2-5.1c-0.2-0.2-0.3-0.3-0.5-0.5c-0.1-0.1-0.1-0.1-0.2-0.2c-0.2-0.2-0.4-0.4-0.6-0.7C9,51.5,7.8,49.7,7,47.7
		c-0.3-0.8-0.6-1.5-0.9-2.1c-0.5-1.8-0.8-3.6-0.8-5.5c0-1.4,0.2-2.8,0.4-4.1c0.2-0.4,0.3-0.8,0.5-1.4l-0.1,0c1.1-4,3.5-7.4,6.7-9.9
		l0.1,0c1.3-1.1,2.8-2,4.4-2.6c1.2-0.5,2.5-0.9,3.8-1.2c0.3-0.1,0.6-0.1,1-0.2c0.2,0,0.5-0.1,0.8-0.1c0.2,0,0.4,0,0.6,0
		c0.2,0,0.4,0,0.6,0c0.3,0,0.5,0,0.8,0c0.4,0,0.9,0,1.2,0c3.8,0.2,7.5,1.6,10.5,3.8c0.2,0.2,0.4,0.4,0.7,0.6l0,0l2.4-3.7
		c-0.9-0.7-1.8-1.4-2.8-1.9c-0.3-0.2-0.7-0.4-1-0.5c-0.3-0.1-0.5-0.3-0.8-0.4c-0.5-0.2-1.1-0.5-1.6-0.7c0,0-0.1,0-0.1,0
		c-0.2-0.1-0.4-0.1-0.6-0.2c-0.3-0.1-0.6-0.2-0.9-0.3c0,0,0,0-0.1,0c0,0-0.1,0-0.1,0c-0.5-0.1-1-0.3-1.5-0.4c-0.1,0-0.2,0-0.3-0.1
		c-0.5-0.1-1-0.2-1.4-0.2c-0.1,0-0.3,0-0.4-0.1c-0.6-0.1-1.2-0.1-1.8-0.2c-0.8,0-1.5,0-2.3,0c-0.5,0-0.9,0-1.3,0.1
		c-0.7,0.1-1.4,0.2-2.1,0.3c-0.5,0.1-1,0.2-1.5,0.4c-0.3,0.1-0.6,0.2-0.9,0.3c-0.7,0.2-1.5,0.5-2.2,0.8c-3,1.3-5.7,3.1-7.9,5.4
		c0,0,0,0,0,0C3.6,27.7,1,33.5,1,40c0,1.6,0.2,3.2,0.5,4.7c0.2,0.8,0.3,1.5,0.6,2.3c0,0,0,0,0,0.1c0.2,0.7,0.5,1.5,0.8,2.2
		c0.2,0.4,0.3,0.8,0.5,1.2c0.2,0.3,0.3,0.6,0.5,0.9c0.2,0.3,0.3,0.6,0.5,1c0.2,0.3,0.4,0.7,0.7,1c0.2,0.3,0.4,0.6,0.7,0.9
		c0.3,0.5,0.7,0.9,1.1,1.3c0.4,0.4,0.8,0.9,1.2,1.3c0.3,0.3,0.5,0.5,0.8,0.8c0.6,0.5,1.2,1,1.8,1.5c0.3,0.2,0.6,0.4,0.9,0.6
		c0,0,0,0,0.1,0c0.3,0.2,0.6,0.4,0.9,0.6c0,0,0.1,0,0.1,0.1c0.3,0.2,0.6,0.4,0.9,0.5c0.3,0.2,0.6,0.3,0.9,0.5
		c0.7,0.3,1.4,0.6,2.1,0.9c0.2,0.1,0.3,0.1,0.5,0.2c1,0.4,2,0.6,3.1,0.9c0.8,0.2,1.6,0.3,2.4,0.4c0.4,0,0.8,0.1,1.2,0.1
		c0.4,0,0.8,0,1.2,0h0.2c0.2,0,0.5,0,0.7,0c0,0,0.1,0,0.1,0c0.4,0,0.9,0,1.3-0.1c0.1,0,0.2,0,0.2,0c0.7-0.1,1.4-0.2,2.1-0.3
		c0.5-0.1,1-0.2,1.5-0.4c0.3-0.1,0.6-0.2,0.9-0.3c0.7-0.2,1.5-0.5,2.2-0.8c0.4-0.2,0.8-0.3,1.1-0.5c0.3-0.1,0.6-0.3,0.9-0.5
		c0.3-0.2,0.6-0.4,1-0.5c0.4-0.2,0.7-0.4,1-0.6c0.3-0.2,0.6-0.4,0.9-0.7c0.5-0.3,0.9-0.7,1.3-1.1c0.4-0.4,0.9-0.8,1.3-1.2
		c0.3-0.3,0.5-0.6,0.8-0.8c0.5-0.6,1-1.2,1.5-1.8c0.2-0.3,0.4-0.6,0.7-0.9c0,0,0,0,0-0.1c0.2-0.3,0.4-0.6,0.6-0.9c0,0,0-0.1,0.1-0.1
		c0.2-0.3,0.3-0.6,0.5-0.9c0.2-0.3,0.3-0.6,0.5-0.9c0.3-0.7,0.6-1.4,0.9-2.1c0.1-0.2,0.1-0.3,0.2-0.5c0.4-1,0.6-2,0.9-3.1
		c0.2-0.8,0.3-1.6,0.4-2.4c0-0.4,0.1-0.8,0.1-1.2c0-0.4,0-0.8,0-1.2v-0.5C48.8,36.6,48.1,33.6,46.9,30.7z"/>
</g>
</svg>
