<svg width="80" height="80" viewBox="0 0 80 80" fill="none" xmlns="http://www.w3.org/2000/svg">
<path fill-rule="evenodd" clip-rule="evenodd" d="M50.7953 27.9097C47.1171 25.4176 42.6795 23.9619 37.9019 23.9619C33.1936 23.9619 28.8154 25.3758 25.1689 27.802L28.1467 30.7798C30.9947 29.0608 34.3328 28.0717 37.9019 28.0717C41.5408 28.0717 44.9396 29.0998 47.8236 30.8814L50.7953 27.9097Z" fill="#461CDC"/>
<path fill-rule="evenodd" clip-rule="evenodd" d="M47.3469 27.2498C48.647 25.3859 49.4095 23.119 49.4095 20.6741C49.4095 14.3187 44.2574 9.16663 37.902 9.16663C31.5466 9.16663 26.3945 14.3187 26.3945 20.6741C26.3945 23.119 27.157 25.3859 28.4571 27.2498H34.5096C32.1306 26.02 30.5043 23.5369 30.5043 20.6741C30.5043 16.5885 33.8164 13.2764 37.902 13.2764C41.9876 13.2764 45.2997 16.5885 45.2997 20.6741C45.2997 23.5369 43.6735 26.02 41.2944 27.2498H47.3469Z" fill="#461CDC"/>
<path fill-rule="evenodd" clip-rule="evenodd" d="M28.038 17.0846C27.3573 17.2937 26.7666 17.5091 26.2768 17.717C25.2711 18.0797 24.2821 18.4884 23.3141 18.9435C17.7108 21.5798 13.1927 25.6036 10.3223 30.6299L10.3103 30.651L10.2339 30.7911L10.2223 30.8133C5.49122 39.9262 5.47944 49.6319 10.2017 58.7011C13.6379 65.3007 18.4029 69.2568 18.7125 69.5102L18.7133 69.5109L20.1533 70.6899H35.6913L38.0353 64.8385H39.9829L42.2507 70.8333L56.8344 70.6668L58.2887 69.3804C61.6195 66.435 64.3089 63.1061 66.29 59.4467H74.068V31.9596H66.8132C65.8222 30.1492 64.674 28.4555 63.3781 26.9002C61.4472 24.5819 59.1873 22.568 56.662 20.9146C54.4455 19.4636 52.0335 18.3 49.4937 17.4368L49.4615 17.4259L49.429 17.4158C48.8708 17.2431 48.316 17.0855 47.7651 16.942V22.0642C47.823 22.0817 47.8808 22.0993 47.9388 22.1172C50.0895 22.8511 52.1141 23.8319 53.9607 25.0407C56.0778 26.4269 57.9708 28.1141 59.5888 30.0568C60.9466 31.6863 62.1239 33.513 63.0974 35.5072L63.7731 36.8914H69.1362V54.5149H63.2325L62.5602 55.9109C60.8405 59.482 58.3227 62.767 55.0215 65.6861L54.9421 65.7563L45.6432 65.8625L43.3901 59.9067H34.6982L32.3542 65.7581H21.9148L21.8369 65.6944L21.8361 65.6937C21.7601 65.6315 17.5707 62.175 14.576 56.4234C10.6048 48.7966 10.6039 40.7968 14.588 33.1076L14.6166 33.0552C16.9362 29.0039 20.6437 25.6504 25.4137 23.4061C26.2593 23.0085 27.126 22.6513 28.0114 22.3342L28.038 22.3247V17.0846Z" fill="#461CDC"/>
</svg>
