<svg width="80" height="80" viewBox="0 0 80 80" fill="none" xmlns="http://www.w3.org/2000/svg">
<path d="M52.2513 9.16663V13.4704C50.3885 13.7756 48.6862 14.5464 47.2088 15.6063L44.1254 12.539L41.2348 15.4296L44.3181 18.513C43.2582 20.0065 42.5035 21.6927 42.1823 23.5555H37.8624V27.6666H42.1823C42.5035 29.5295 43.2582 31.2157 44.3181 32.7092L41.2348 35.7925L44.1254 38.6831L47.2088 35.6158C48.6862 36.6757 50.3885 37.4466 52.2513 37.7517V42.0555H56.3624V37.7517C58.2253 37.4466 59.9275 36.6757 61.405 35.6158L64.4722 38.6831L67.395 35.7925L64.3116 32.7092C65.3555 31.2157 66.1102 29.5295 66.4314 27.6666H70.7513V23.5555H66.4314C66.1102 21.6927 65.3555 20.0065 64.3116 18.513L67.395 15.4296L64.4722 12.539L61.405 15.6063C59.9275 14.5464 58.2253 13.7756 56.3624 13.4704V9.16663H52.2513ZM31.9848 13.2777L31.0213 18.3684C27.1832 19.4765 23.6662 21.516 20.7756 24.2942L15.8776 22.5759L10 32.7573L13.9184 36.1137C13.4366 38.0729 13.1957 40.0481 13.1957 42.0555C13.1957 44.0629 13.4366 46.0542 13.9184 47.9974L10 51.3537L15.8776 61.5351L20.7756 59.8007C23.6662 62.6111 27.1832 64.6345 31.0213 65.7426L31.9848 70.8333H43.74L44.6714 65.7426C48.5417 64.6345 52.0425 62.6111 54.9492 59.8168L59.8312 61.5351L65.7088 51.3537L61.8064 47.9974C62.1115 46.7126 62.3043 45.4118 62.4006 44.1111L58.2734 44.079C58.145 45.444 57.9201 46.7929 57.5187 48.0937L57.1172 49.3784L60.4575 52.253L57.9844 56.5086L53.809 55.0473L52.8937 56.0429C50.0673 59.062 46.454 61.1497 42.4553 62.0811L41.1385 62.3702L40.3355 66.7222H35.3893L34.5864 62.3702L33.2695 62.0811C29.2548 61.1497 25.6576 59.062 22.8312 56.0429L21.8997 55.0473L17.7244 56.5247L15.2674 52.253L18.6076 49.3784L18.2062 48.0937C17.612 46.1506 17.3069 44.1111 17.3069 42.0555C17.3069 40.016 17.612 37.9765 18.2062 36.0173L18.6076 34.7326L15.2674 31.858L17.7244 27.5863L21.9158 29.0477L22.8312 28.0681C25.6576 25.0329 29.2548 22.9613 33.2695 22.046L34.5864 21.7248L35.3893 17.3888H36.8025L37.3485 13.2777H31.9848ZM54.3069 17.3888C58.8676 17.3888 62.5291 21.0503 62.5291 25.6111C62.5291 30.1718 58.8676 33.8333 54.3069 33.8333C49.7461 33.8333 46.0846 30.1718 46.0846 25.6111C46.0846 21.0503 49.7461 17.3888 54.3069 17.3888ZM35.4054 29.9791C29.7847 31.1193 25.5291 36.0976 25.5291 42.0555C25.5291 48.8485 31.0694 54.3888 37.8624 54.3888C44.013 54.3888 49.0877 49.8441 50.003 43.9184C48.6059 43.8381 47.273 43.5811 45.9722 43.1475C45.4262 47.1623 42.0217 50.2777 37.8624 50.2777C33.3338 50.2777 29.6402 46.5842 29.6402 42.0555C29.6402 38.105 32.4345 34.829 36.128 34.026C35.6784 32.7573 35.4696 31.3923 35.4054 29.9791Z" fill="#6BFF50"/>
</svg>
