<svg width="80" height="80" viewBox="0 0 80 80" fill="none" xmlns="http://www.w3.org/2000/svg">
<path d="M13.8098 11.6666C9.885 11.6666 6.66699 14.8846 6.66699 18.8095V56.9047C6.66699 60.8296 9.885 64.0476 13.8098 64.0476H16.1908V68.8095H25.7146V64.0476H49.5241V68.8095H59.0479V64.0476H61.4289C65.3538 64.0476 68.5718 60.8296 68.5718 56.9047V54.5238H73.3337V45H68.5718V30.7142H73.3337V21.1904H68.5718V18.8095C68.5718 14.8846 65.3538 11.6666 61.4289 11.6666H13.8098ZM13.8098 16.4285H61.4289C62.7682 16.4285 63.8099 17.4702 63.8099 18.8095V56.9047C63.8099 58.244 62.7682 59.2857 61.4289 59.2857H13.8098C12.4706 59.2857 11.4289 58.244 11.4289 56.9047V18.8095C11.4289 17.4702 12.4706 16.4285 13.8098 16.4285ZM16.1908 25.9523V49.7619H20.9527V25.9523H16.1908ZM42.3813 25.9523C35.8337 25.9523 30.4765 31.3095 30.4765 37.8571C30.4765 44.4047 35.8337 49.7619 42.3813 49.7619C48.9289 49.7619 54.286 44.4047 54.286 37.8571C54.286 31.3095 48.9289 25.9523 42.3813 25.9523ZM42.3813 30.7142C46.3619 30.7142 49.5241 33.8764 49.5241 37.8571C49.5241 41.8378 46.3619 45 42.3813 45C38.4006 45 35.2384 41.8378 35.2384 37.8571C35.2384 33.8764 38.4006 30.7142 42.3813 30.7142Z" fill="#461CDC"/>
</svg>
