<svg width="80" height="80" viewBox="0 0 80 80" fill="none" xmlns="http://www.w3.org/2000/svg">
<path d="M18.1252 10.8333C14.1267 10.8333 10.8335 14.1266 10.8335 18.125V61.875C10.8335 65.8734 14.1267 69.1667 18.1252 69.1667H61.8752C65.8736 69.1667 69.1668 65.8734 69.1668 61.875V18.125C69.1668 14.1266 65.8736 10.8333 61.8752 10.8333H18.1252ZM18.1252 15.6945H36.5632L30.9615 21.2961C30.0117 20.8393 28.9633 20.5556 27.8474 20.5556C23.8491 20.5556 20.5557 23.8489 20.5557 27.8472C20.5557 31.8455 23.8491 35.1389 27.8474 35.1389C31.8457 35.1389 35.1391 31.8455 35.1391 27.8472C35.1391 26.7313 34.8553 25.6829 34.3985 24.7331L43.4371 15.6945H61.8752C63.2434 15.6945 64.3057 16.7568 64.3057 18.125V60.8686L58.704 55.2669C59.1608 54.3171 59.4446 53.2687 59.4446 52.1528C59.4446 48.1545 56.1512 44.8611 52.1529 44.8611C48.1547 44.8611 44.8613 48.1545 44.8613 52.1528C44.8613 56.1511 48.1547 59.4445 52.1529 59.4445C53.2688 59.4445 54.3173 59.1607 55.2671 58.7039L60.8688 64.3056H18.1252C16.7569 64.3056 15.6946 63.2433 15.6946 61.875V18.125C15.6946 16.7568 16.7569 15.6945 18.1252 15.6945ZM52.1529 20.5556C48.1547 20.5556 44.8613 23.8489 44.8613 27.8472C44.8613 28.9631 45.145 30.0116 45.6018 30.9614L30.9615 45.6017C30.0117 45.1449 28.9633 44.8611 27.8474 44.8611C23.8491 44.8611 20.5557 48.1545 20.5557 52.1528C20.5557 56.1511 23.8491 59.4445 27.8474 59.4445C31.8457 59.4445 35.1391 56.1511 35.1391 52.1528C35.1391 51.0369 34.8553 49.9885 34.3985 49.0386L49.0388 34.3983C49.9886 34.8551 51.037 35.1389 52.1529 35.1389C56.1512 35.1389 59.4446 31.8455 59.4446 27.8472C59.4446 23.8489 56.1512 20.5556 52.1529 20.5556ZM27.8474 25.4167C29.2185 25.4167 30.2779 26.4761 30.2779 27.8472C30.2779 29.2184 29.2185 30.2778 27.8474 30.2778C26.4762 30.2778 25.4168 29.2184 25.4168 27.8472C25.4168 26.4761 26.4762 25.4167 27.8474 25.4167ZM52.1529 25.4167C53.5241 25.4167 54.5835 26.4761 54.5835 27.8472C54.5835 29.2184 53.5241 30.2778 52.1529 30.2778C50.7818 30.2778 49.7224 29.2184 49.7224 27.8472C49.7224 26.4761 50.7818 25.4167 52.1529 25.4167ZM27.8474 49.7222C29.2185 49.7222 30.2779 50.7816 30.2779 52.1528C30.2779 53.5239 29.2185 54.5833 27.8474 54.5833C26.4762 54.5833 25.4168 53.5239 25.4168 52.1528C25.4168 50.7816 26.4762 49.7222 27.8474 49.7222ZM52.1529 49.7222C53.5241 49.7222 54.5835 50.7816 54.5835 52.1528C54.5835 53.5239 53.5241 54.5833 52.1529 54.5833C50.7818 54.5833 49.7224 53.5239 49.7224 52.1528C49.7224 50.7816 50.7818 49.7222 52.1529 49.7222Z" fill="#6BFF50"/>
</svg>
