<svg width="80" height="80" viewBox="0 0 80 80" fill="none" xmlns="http://www.w3.org/2000/svg">
<path d="M20.1953 15C18.8086 15 17.6953 16.1133 17.6953 17.5C17.6953 18.8867 18.8086 20 20.1953 20C21.582 20 22.6953 18.8867 22.6953 17.5C22.6953 16.1133 21.582 15 20.1953 15ZM60.1953 15C58.8086 15 57.6953 16.1133 57.6953 17.5C57.6953 18.8867 58.8086 20 60.1953 20C61.582 20 62.6953 18.8867 62.6953 17.5C62.6953 16.1133 61.582 15 60.1953 15ZM46.1328 25L32.3828 43.3984L19.1797 35.1953L7.5 52.3437L11.6406 55.1562L20.6055 41.9922L33.6328 50.0391L46.7578 32.5L60.1953 45.3125L72.5391 33.6914L69.1016 30.0586L60.1953 38.4375L46.1328 25ZM20.1953 25C18.8086 25 17.6953 26.1133 17.6953 27.5C17.6953 28.8867 18.8086 30 20.1953 30C21.582 30 22.6953 28.8867 22.6953 27.5C22.6953 26.1133 21.582 25 20.1953 25ZM60.1953 25C58.8086 25 57.6953 26.1133 57.6953 27.5C57.6953 28.8867 58.8086 30 60.1953 30C61.582 30 62.6953 28.8867 62.6953 27.5C62.6953 26.1133 61.582 25 60.1953 25ZM20.1953 50C18.8086 50 17.6953 51.1133 17.6953 52.5C17.6953 53.8867 18.8086 55 20.1953 55C21.582 55 22.6953 53.8867 22.6953 52.5C22.6953 51.1133 21.582 50 20.1953 50ZM60.1953 50C58.8086 50 57.6953 51.1133 57.6953 52.5C57.6953 53.8867 58.8086 55 60.1953 55C61.582 55 62.6953 53.8867 62.6953 52.5C62.6953 51.1133 61.582 50 60.1953 50ZM20.1953 60C18.8086 60 17.6953 61.1133 17.6953 62.5C17.6953 63.8867 18.8086 65 20.1953 65C21.582 65 22.6953 63.8867 22.6953 62.5C22.6953 61.1133 21.582 60 20.1953 60ZM60.1953 60C58.8086 60 57.6953 61.1133 57.6953 62.5C57.6953 63.8867 58.8086 65 60.1953 65C61.582 65 62.6953 63.8867 62.6953 62.5C62.6953 61.1133 61.582 60 60.1953 60Z" fill="#6BFF50"/>
</svg>
