<svg width="80" height="80" viewBox="0 0 80 80" fill="none" xmlns="http://www.w3.org/2000/svg">
<path d="M25.6112 9.16663C23.3629 9.16663 21.5001 11.0295 21.5001 13.2777V31.7777C21.5001 32.9179 22.4154 33.8333 23.5556 33.8333H56.4445C57.5847 33.8333 58.5001 32.9179 58.5001 31.7777V13.2777C58.5001 11.0295 56.6372 9.16663 54.389 9.16663H25.6112ZM25.6112 17.3888H54.389V29.7222H25.6112V17.3888ZM26.5747 37.9444L19.1715 50.2777H23.9732L31.3603 37.9444H26.5747ZM37.9445 37.9444V50.2777H42.0556V37.9444H37.9445ZM48.6398 37.9444L56.0431 50.2777H60.8286L53.4254 37.9444H48.6398ZM13.2779 54.3888C11.0135 54.3888 9.16675 56.2356 9.16675 58.5V66.7222C9.16675 68.9865 11.0135 70.8333 13.2779 70.8333H21.5001C23.7644 70.8333 25.6112 68.9865 25.6112 66.7222V58.5C25.6112 56.2356 23.7644 54.3888 21.5001 54.3888H13.2779ZM33.8334 54.3888C31.5691 54.3888 29.7223 56.2356 29.7223 58.5V66.7222C29.7223 68.9865 31.5691 70.8333 33.8334 70.8333H46.1667C48.4311 70.8333 50.2779 68.9865 50.2779 66.7222V58.5C50.2779 56.2356 48.4311 54.3888 46.1667 54.3888H33.8334ZM58.5001 54.3888C56.2358 54.3888 54.389 56.2356 54.389 58.5V66.7222C54.389 68.9865 56.2358 70.8333 58.5001 70.8333H66.7223C68.9866 70.8333 70.8334 68.9865 70.8334 66.7222V58.5C70.8334 56.2356 68.9866 54.3888 66.7223 54.3888H58.5001ZM13.2779 58.5H21.5001V66.7222H13.2779V58.5ZM33.8334 58.5H46.1667V66.7222H33.8334V58.5ZM58.5001 58.5H66.7223V66.7222H58.5001V58.5Z" fill="#6BFF50"/>
</svg>
