<svg width="80" height="80" viewBox="0 0 80 80" fill="none" xmlns="http://www.w3.org/2000/svg">
<path d="M39.9998 19.1667C33.1151 19.1667 27.4998 24.7819 27.4998 31.6667C27.4998 35.6706 29.4367 39.2025 32.3827 41.4974C30.6086 42.1973 28.981 43.1576 27.4836 44.2969C27.4836 44.2481 27.4998 44.2155 27.4998 44.1667C27.4998 39.5931 23.7401 35.8334 19.1665 35.8334C14.5929 35.8334 10.8332 39.5931 10.8332 44.1667C10.8332 46.3965 11.7446 48.431 13.1769 49.9284C9.3195 52.0606 6.6665 56.1296 6.6665 60.8334H10.8332C10.8332 56.211 14.5441 52.5 19.1665 52.5C19.7524 52.5 20.3058 52.5651 20.8429 52.6791C19.7687 55.1856 19.1665 57.9362 19.1665 60.8334H23.3332C23.3332 51.6048 30.7713 44.1667 39.9998 44.1667C49.2284 44.1667 56.6665 51.6048 56.6665 60.8334H60.8332C60.8332 57.9525 60.231 55.2018 59.1567 52.6953C59.7101 52.5814 60.2635 52.5 60.8332 52.5C65.4556 52.5 69.1665 56.211 69.1665 60.8334H73.3332C73.3332 56.1296 70.6802 52.0606 66.8228 49.9284C68.2551 48.431 69.1665 46.3965 69.1665 44.1667C69.1665 39.5931 65.4067 35.8334 60.8332 35.8334C56.2596 35.8334 52.4998 39.5931 52.4998 44.1667C52.4998 44.2155 52.5161 44.2481 52.5161 44.2969C51.0187 43.1576 49.3911 42.1973 47.617 41.4974C50.563 39.2025 52.4998 35.6706 52.4998 31.6667C52.4998 24.7819 46.8846 19.1667 39.9998 19.1667ZM39.9998 23.3334C44.6222 23.3334 48.3332 27.0443 48.3332 31.6667C48.3332 36.2891 44.6222 40 39.9998 40C35.3774 40 31.6665 36.2891 31.6665 31.6667C31.6665 27.0443 35.3774 23.3334 39.9998 23.3334ZM19.1665 40C21.494 40 23.3332 41.8392 23.3332 44.1667C23.3332 46.4942 21.494 48.3334 19.1665 48.3334C16.839 48.3334 14.9998 46.4942 14.9998 44.1667C14.9998 41.8392 16.839 40 19.1665 40ZM60.8332 40C63.1606 40 64.9998 41.8392 64.9998 44.1667C64.9998 46.4942 63.1606 48.3334 60.8332 48.3334C58.5057 48.3334 56.6665 46.4942 56.6665 44.1667C56.6665 41.8392 58.5057 40 60.8332 40Z" fill="#6BFF50"/>
</svg>
