<svg width="80" height="80" viewBox="0 0 80 80" fill="none" xmlns="http://www.w3.org/2000/svg">
<path d="M35 7.50057C34.1016 7.48104 33.2617 7.96931 32.8125 8.73103C32.3438 9.51228 32.3438 10.4888 32.8125 11.2701C33.2617 12.0318 34.1016 12.5201 35 12.5006H37.5V17.6178C23.5156 18.9068 12.5 30.6842 12.5 45.0006C12.5 60.1568 24.8438 72.5006 40 72.5006C55.1563 72.5006 67.5 60.1568 67.5 45.0006C67.5 30.6842 56.4844 18.9068 42.5 17.6178V12.5006H45C45.8984 12.5201 46.7383 12.0318 47.1875 11.2701C47.6563 10.4888 47.6563 9.51228 47.1875 8.73103C46.7383 7.96931 45.8984 7.48104 45 7.50057H35ZM59.9805 17.4615C58.9453 17.481 58.0273 18.0865 57.6563 19.0435C57.2656 19.981 57.5 21.0553 58.2227 21.7584L63.5352 27.0709C64.1797 27.7349 65.0977 27.9888 65.9766 27.774C66.8555 27.5396 67.5391 26.856 67.7734 25.9771C67.9883 25.0982 67.7344 24.1803 67.0898 23.5553L61.7773 18.2428C61.2891 17.7545 60.6445 17.4615 59.9805 17.4615ZM40 22.5006C52.4609 22.5006 62.5 32.5396 62.5 45.0006C62.5 57.4615 52.4609 67.5006 40 67.5006C27.5391 67.5006 17.5 57.4615 17.5 45.0006C17.5 32.5396 27.5391 22.5006 40 22.5006ZM29.9609 32.4615C28.9453 32.481 28.0273 33.0865 27.6563 34.0435C27.2656 34.981 27.5 36.0553 28.2422 36.7584L38.2422 46.7584C38.8672 47.4224 39.7852 47.6763 40.6641 47.4615C41.543 47.2271 42.2266 46.5435 42.4609 45.6646C42.6758 44.7857 42.4219 43.8678 41.7578 43.2428L31.7578 33.2428C31.2891 32.7545 30.6445 32.4615 29.9609 32.4615Z" fill="#6BFF50"/>
</svg>
