<svg width="80" height="80" viewBox="0 0 80 80" fill="none" xmlns="http://www.w3.org/2000/svg">
<path d="M22.5 10C18.3789 10 15 13.3789 15 17.5V62.5C15 66.6211 18.3789 70 22.5 70H57.5C61.6211 70 65 66.6211 65 62.5V17.5C65 13.3789 61.6211 10 57.5 10H22.5ZM22.5 15H57.5C58.9062 15 60 16.0938 60 17.5V62.5C60 63.9062 58.9062 65 57.5 65H22.5C21.0938 65 20 63.9062 20 62.5V17.5C20 16.0938 21.0938 15 22.5 15ZM25 25V30H55V25H25ZM25 40V45H45V40H25ZM50 40V45H55V40H50ZM25 50V55H45V50H25ZM50 50V55H55V50H50Z" fill="#6BFF50"/>
</svg>
