<svg width="80" height="80" viewBox="0 0 80 80" fill="none" xmlns="http://www.w3.org/2000/svg">
<path d="M53.2828 9.16663C52.8209 9.1851 52.3589 9.24054 51.8969 9.35142H51.8599L16.7301 19.5522C13.6994 20.4023 11.6666 23.2481 11.6666 26.4082V63.4599C11.6666 67.4146 14.7897 70.8333 18.7628 70.8333H61.34C65.2946 70.8333 68.4362 67.433 68.4362 63.4599V30.8987C68.4362 26.9071 65.3131 23.5069 61.34 23.5069H20.0934L53.0426 13.9344H53.0611C53.5416 13.805 53.6709 13.8974 53.8557 14.0637C54.022 14.2301 54.2438 14.5996 54.2438 15.191V18.7391H58.9746V15.191C58.9746 13.4169 58.3093 11.7168 56.9973 10.5526C56.0363 9.68406 54.6873 9.16663 53.2828 9.16663ZM18.7628 28.2376H61.34C62.5966 28.2376 63.7054 29.3279 63.7054 30.8987V63.4599C63.7054 65.0122 62.5966 66.1025 61.34 66.1025H18.7628C17.5062 66.1025 16.3974 65.0122 16.3974 63.4599V30.8987C16.3974 29.3279 17.5062 28.2376 18.7628 28.2376ZM51.0899 42.3931C48.4843 42.3931 46.3591 44.5182 46.3591 47.1239C46.3591 49.7295 48.4843 51.8547 51.0899 51.8547C53.6956 51.8547 55.8207 49.7295 55.8207 47.1239C55.8207 44.5182 53.6956 42.3931 51.0899 42.3931Z" fill="#6BFF50"/>
</svg>
