<?xml version="1.0" encoding="utf-8"?>
<!-- Generator: Adobe Illustrator 29.6.1, SVG Export Plug-In . SVG Version: 9.03 Build 0)  -->
<svg version="1.1" id="Camada_1" xmlns="http://www.w3.org/2000/svg" xmlns:xlink="http://www.w3.org/1999/xlink" x="0px" y="0px"
	 viewBox="0 0 80 80" style="enable-background:new 0 0 80 80;" xml:space="preserve">
<style type="text/css">
	.st0{fill:#6BFF50;}
</style>
<g>
	<rect x="22.6" y="25.5" class="st0" width="4.3" height="21.1"/>
	<path class="st0" d="M26.9,52.2v0.5c0,1-0.8,1.9-1.9,1.9h-0.5c-1,0-1.9-0.8-1.9-1.9v-0.5c0-1,0.8-1.9,1.9-1.9H25
		C26,50.3,26.9,51.1,26.9,52.2z"/>
</g>
<path class="st0" d="M46.7,30.7c-3-7.1-9.3-12.4-17-14c-0.3-0.1-0.6-0.1-0.9-0.2c0,0-0.1,0-0.1,0c-0.3-0.1-0.6-0.1-0.9-0.1
	c0,0-0.1,0-0.1,0c-0.3,0-0.6-0.1-1-0.1c-0.3,0-0.6-0.1-0.9-0.1c-0.4,0-0.8,0-1.1,0c-0.4,0-0.7,0-1.1,0c-0.3,0-0.7,0-1,0.1
	c-0.7,0-1.4,0.1-2,0.3c-4,0.7-7.7,2.3-10.7,4.8c-5.5,4.4-9.1,11.2-9.1,18.8C0.8,53.3,11.5,64,24.8,64s23.9-10.7,23.9-23.9
	C48.7,36.8,48,33.6,46.7,30.7z M24.8,60.3c-11.2,0-20.3-9.1-20.3-20.3s9.1-20.3,20.3-20.3S45,28.9,45,40.1S35.9,60.3,24.8,60.3z"/>
</svg>
