<svg width="80" height="80" viewBox="0 0 80 80" fill="none" xmlns="http://www.w3.org/2000/svg">
<path fill-rule="evenodd" clip-rule="evenodd" d="M9.16699 40C9.16699 23.0066 23.007 9.16663 40.0003 9.16663C56.9937 9.16663 70.8337 23.0066 70.8337 40C70.8337 56.9933 56.9937 70.8333 40.0003 70.8333C23.007 70.8333 9.16699 56.9933 9.16699 40ZM40.0003 66.6666C54.7279 66.6666 66.667 54.7276 66.667 40C66.667 25.2724 54.7279 13.3333 40.0003 13.3333C25.2727 13.3333 13.3337 25.2724 13.3337 40C13.3337 54.7276 25.2727 66.6666 40.0003 66.6666Z" fill="#461CDC"/>
<path d="M37.817 23.1758V27.8899H35.4048C31.5273 27.8899 28.3337 31.0835 28.3337 34.961C28.3337 38.8385 31.5273 42.0321 35.4048 42.0321H38.9403H41.2974H44.8329C46.1598 42.0321 47.19 43.0623 47.19 44.3892C47.19 45.716 46.1598 46.7462 44.8329 46.7462H35.4048H28.3337V51.4603H35.4048H37.817V56.1743H42.5311V51.4603H44.8329C48.7104 51.4603 51.904 48.2666 51.904 44.3892C51.904 40.5117 48.7104 37.318 44.8329 37.318H41.2974H38.9403H35.4048C34.0779 37.318 33.0477 36.2879 33.0477 34.961C33.0477 33.6341 34.0779 32.604 35.4048 32.604H47.19V27.8899H42.5311V23.1758H37.817Z" fill="#461CDC"/>
</svg>
