<svg width="80" height="80" viewBox="0 0 80 80" fill="none" xmlns="http://www.w3.org/2000/svg">
<path fill-rule="evenodd" clip-rule="evenodd" d="M37.5 26.6667C37.5 25.28 38.6133 24.1667 40 24.1667C41.3867 24.1667 42.5 25.28 42.5 26.6667C42.5 28.0534 41.3867 29.1667 40 29.1667C38.6133 29.1667 37.5 28.0534 37.5 26.6667ZM53.2227 29.9089C53.6914 29.4401 54.2969 29.1667 54.9414 29.1472C55.9766 29.1276 56.9141 29.7331 57.3242 30.6706C57.7148 31.6276 57.5 32.7214 56.7773 33.4245L41.7578 48.4245C41.1328 49.0886 40.2148 49.3425 39.3359 49.1276C38.457 48.8933 37.7734 48.2097 37.5391 47.3308C37.3242 46.4518 37.5781 45.5339 38.2422 44.9089L53.2227 29.9089ZM22.5 31.6667C22.5 30.28 23.6133 29.1667 25 29.1667C26.3867 29.1667 27.5 30.28 27.5 31.6667C27.5 33.0534 26.3867 34.1667 25 34.1667C23.6133 34.1667 22.5 33.0534 22.5 31.6667ZM17.5 46.6667C17.5 45.28 18.6133 44.1667 20 44.1667C21.3867 44.1667 22.5 45.28 22.5 46.6667C22.5 48.0534 21.3867 49.1667 20 49.1667C18.6133 49.1667 17.5 48.0534 17.5 46.6667ZM57.5 46.6667C57.5 45.28 58.6133 44.1667 60 44.1667C61.3867 44.1667 62.5 45.28 62.5 46.6667C62.5 48.0534 61.3867 49.1667 60 49.1667C58.6133 49.1667 57.5 48.0534 57.5 46.6667Z" fill="#6BFF50"/>
<path d="M40 14.1667C22.0898 14.1667 7.5 28.7565 7.5 46.6667C7.5 53.1261 9.39774 59.1536 12.6646 64.2206C13.4864 65.4954 15.2974 65.4923 16.3373 64.3882V64.3882C17.1475 63.5279 17.2681 62.215 16.6432 61.212C14.0163 56.9956 12.5 52.0119 12.5 46.6667C12.5 31.4518 24.7852 19.1667 40 19.1667C55.2148 19.1667 67.5 31.4518 67.5 46.6667C67.5 52.0119 65.9837 56.9956 63.3568 61.212C62.7319 62.215 62.8525 63.5279 63.6627 64.3882V64.3882C64.7026 65.4923 66.5136 65.4953 67.3354 64.2206C70.6023 59.1536 72.5 53.1261 72.5 46.6667C72.5 28.7565 57.9102 14.1667 40 14.1667Z" fill="#6BFF50"/>
</svg>
