<svg width="80" height="80" viewBox="0 0 80 80" fill="none" xmlns="http://www.w3.org/2000/svg">
<path d="M40.1282 9.16663C29.6774 9.16663 21.1538 17.6903 21.1538 28.141C21.1538 34.9228 24.7856 40.8523 30.1592 44.2062C19.375 48.2642 11.6666 58.6593 11.6666 70.8333H16.4102C16.4102 59.3264 24.5447 49.7836 35.3846 47.5971V51.8589L40.1282 56.6025L44.8718 51.8589V47.5971C55.7116 49.7836 63.8461 59.3264 63.8461 70.8333H68.5897C68.5897 58.6593 60.8814 48.2642 50.0971 44.2062C55.4707 40.8523 59.1025 34.9228 59.1025 28.141C59.1025 17.6903 50.5789 9.16663 40.1282 9.16663ZM40.1282 56.6025L35.3846 61.3461V70.8333H44.8718V61.3461L40.1282 56.6025ZM40.1282 13.9102C48.0218 13.9102 54.3589 20.2474 54.3589 28.141C54.3589 36.0346 48.0218 42.3718 40.1282 42.3718C32.2345 42.3718 25.8974 36.0346 25.8974 28.141C25.8974 20.2474 32.2345 13.9102 40.1282 13.9102Z" fill="#6BFF50"/>
</svg>
