<svg width="80" height="80" viewBox="0 0 80 80" fill="none" xmlns="http://www.w3.org/2000/svg">
<g clip-path="url(#clip0_1594_6306)">
<path d="M25.2344 15C22.6789 15 20.2924 16.3102 18.916 18.457L10.6543 30.7715C4.77558 31.7824 0 36.3443 0 42.5V47.5C0 51.6136 3.36474 55.0091 7.48047 55.0391L10.0098 55.0586C10.0426 60.5244 14.5269 65 20 65C25.4932 65 30 60.4932 30 55H50C50 60.4932 54.5068 65 60 65C65.4932 65 70 60.4932 70 55H75C77.7327 55 80 52.7327 80 50V43.1543C80 38.6998 77.0251 34.768 72.7441 33.5449L61.4258 30.3125L51.6699 18.6035C49.7717 16.3257 46.9607 15 43.9941 15H25.2344ZM25.2344 20H30V30H17.1875L23.1152 21.1719L23.125 21.1523C23.5887 20.4291 24.3798 20 25.2344 20ZM35 20H43.9941C45.4776 20 46.8802 20.6547 47.832 21.7969L54.668 30H35V20ZM12.5 35H13.125H13.8281H59.668L71.377 38.3496C73.536 38.9665 75 40.9088 75 43.1543V50H68.5938C66.8527 47.0322 63.6658 45 60 45C56.3342 45 53.1473 47.0322 51.4062 50H28.5938C26.8527 47.0322 23.6658 45 20 45C16.3063 45 13.0986 47.0633 11.3672 50.0684L7.51953 50.0391C6.13528 50.029 5 48.8864 5 47.5V42.5C5 38.3249 8.32492 35 12.5 35ZM20 50C22.791 50 25 52.209 25 55C25 57.791 22.791 60 20 60C17.209 60 15 57.791 15 55C15 52.209 17.209 50 20 50ZM60 50C62.791 50 65 52.209 65 55C65 57.791 62.791 60 60 60C57.209 60 55 57.791 55 55C55 52.209 57.209 50 60 50Z" fill="#461CDC"/>
</g>
<defs>
<clipPath id="clip0_1594_6306">
<rect width="80" height="80" fill="white"/>
</clipPath>
</defs>
</svg>
