<svg width="80" height="80" viewBox="0 0 80 80" fill="none" xmlns="http://www.w3.org/2000/svg">
<path fill-rule="evenodd" clip-rule="evenodd" d="M37.5 26.6666C37.5 25.2799 38.6133 24.1666 40 24.1666C41.3867 24.1666 42.5 25.2799 42.5 26.6666C42.5 28.0533 41.3867 29.1666 40 29.1666C38.6133 29.1666 37.5 28.0533 37.5 26.6666ZM53.2227 29.9088C53.6914 29.4401 54.2969 29.1666 54.9414 29.1471C55.9766 29.1276 56.9141 29.733 57.3242 30.6705C57.7148 31.6276 57.5 32.7213 56.7773 33.4244L41.7578 48.4244C41.1328 49.0885 40.2148 49.3424 39.3359 49.1276C38.457 48.8932 37.7734 48.2096 37.5391 47.3307C37.3242 46.4518 37.5781 45.5338 38.2422 44.9088L53.2227 29.9088ZM22.5 31.6666C22.5 30.2799 23.6133 29.1666 25 29.1666C26.3867 29.1666 27.5 30.2799 27.5 31.6666C27.5 33.0533 26.3867 34.1666 25 34.1666C23.6133 34.1666 22.5 33.0533 22.5 31.6666ZM17.5 46.6666C17.5 45.2799 18.6133 44.1666 20 44.1666C21.3867 44.1666 22.5 45.2799 22.5 46.6666C22.5 48.0533 21.3867 49.1666 20 49.1666C18.6133 49.1666 17.5 48.0533 17.5 46.6666ZM57.5 46.6666C57.5 45.2799 58.6133 44.1666 60 44.1666C61.3867 44.1666 62.5 45.2799 62.5 46.6666C62.5 48.0533 61.3867 49.1666 60 49.1666C58.6133 49.1666 57.5 48.0533 57.5 46.6666Z" fill="#6BFF50"/>
<path d="M40 14.1666C22.0898 14.1666 7.5 28.7565 7.5 46.6666C7.5 53.126 9.39774 59.1536 12.6646 64.2205C13.4864 65.4953 15.2974 65.4922 16.3373 64.3881C17.1475 63.5279 17.2681 62.2149 16.6432 61.2119C14.0163 56.9955 12.5 52.0119 12.5 46.6666C12.5 31.4518 24.7852 19.1666 40 19.1666C55.2148 19.1666 67.5 31.4518 67.5 46.6666C67.5 52.0119 65.9837 56.9955 63.3568 61.2119C62.7319 62.2149 62.8525 63.5279 63.6627 64.3881C64.7026 65.4922 66.5136 65.4953 67.3354 64.2205C70.6023 59.1536 72.5 53.126 72.5 46.6666C72.5 28.7565 57.9102 14.1666 40 14.1666Z" fill="#6BFF50"/>
</svg>
