<svg width="87" height="80" viewBox="0 0 87 80" fill="none" xmlns="http://www.w3.org/2000/svg">
<path d="M18.7952 11.0012C16.9157 11.0012 15.1256 11.7118 13.8542 13.0757C12.5828 14.4384 11.9206 16.3595 11.9206 18.3754V47.8737C11.9206 49.8896 12.5828 51.8108 13.8542 53.1746C15.1256 54.5385 16.9157 55.2491 18.7952 55.2491H39.4177V60.1661H25.6686V65.083H53.1657V67.5415C53.1657 68.9054 54.1866 70 55.4568 70H73.7882C75.0597 70 76.0794 68.9054 76.0794 67.5415V33.1251C76.0794 31.7613 75.0585 30.6667 73.7882 30.6667H71.4971V18.3754C71.4971 16.3595 70.8349 14.4384 69.5635 13.0745C68.2921 11.7106 66.502 11 64.6225 11H18.7952V11.0012ZM18.7952 15.9181H64.6237C65.4835 15.9181 65.9845 16.1874 66.3244 16.5515C66.6643 16.9167 66.9148 17.4541 66.9148 18.3754V30.6667H55.458C54.1866 30.6667 53.1669 31.7613 53.1669 33.1251V50.3333H18.7952C17.9354 50.3333 17.4344 50.0641 17.0945 49.7C16.7546 49.3347 16.504 48.7974 16.504 47.876V18.3754C16.504 17.4541 16.7546 16.9156 17.0945 16.5515C17.4344 16.1874 17.9354 15.9181 18.7952 15.9181ZM57.7491 35.5836H71.4983V65.0819H57.7491V35.5836ZM44.0012 55.2491H53.1669V60.1661H44.0012V55.2491Z" fill="#6BFF50"/>
</svg>
