<?xml version="1.0" encoding="UTF-8"?>
<svg id="Layer_1" data-name="Layer 1" xmlns="http://www.w3.org/2000/svg" xmlns:xlink="http://www.w3.org/1999/xlink" viewBox="0 0 55.75 55.75">
  <defs>
    <style>
      .cls-1 {
        fill: #6bff50;
      }

      .cls-2, .cls-3 {
        fill: none;
      }

      .cls-3 {
        stroke: #6bff50;
        stroke-miterlimit: 10;
        stroke-width: .5px;
      }

      .cls-4 {
        clip-path: url(#clippath);
      }
    </style>
    <clipPath id="clippath">
      <rect class="cls-2" width="55.75" height="55.75"/>
    </clipPath>
  </defs>
  <g class="cls-4">
    <path class="cls-1" d="M51.55,54.93h3.38v-13.53h-3.38v13.53ZM38.02,41.4v3.38h-1.69c-.93,0-1.69.76-1.69,1.69v8.45h3.38v-6.76h3.38v6.76h3.39v-8.45c0-.93-.76-1.69-1.69-1.69h-1.69v-3.38h-3.38ZM7.58,48.17h10.15v-10.15H7.58v10.15ZM4.2,34.64h16.91v16.91H4.2v-16.91ZM46.48,31.26c-.93,0-1.69.76-1.69,1.69v8.45h3.38v-6.76h6.76v-3.38h-8.45ZM32.95,31.26c-.93,0-1.69.76-1.69,1.69v8.45h3.38v-6.76h6.76v-3.38h-8.45ZM2.51,31.26c-.93,0-1.69.76-1.69,1.69v20.29c0,.93.76,1.69,1.69,1.69h20.29c.93,0,1.69-.76,1.69-1.69v-20.29c0-.93-.75-1.69-1.69-1.69H2.51ZM38.02,17.73h10.15V7.58h-10.15v10.15ZM7.58,17.73h10.15V7.58H7.58v10.15ZM34.64,4.2h16.91v16.91h-16.91V4.2ZM4.2,4.2h16.91v16.91H4.2V4.2ZM32.95.82c-.93,0-1.69.76-1.69,1.69v20.29c0,.93.75,1.69,1.69,1.69h20.29c.93,0,1.69-.76,1.69-1.69V2.51c0-.93-.75-1.69-1.69-1.69h-20.29ZM2.51.82c-.93,0-1.69.76-1.69,1.69v20.29c0,.93.76,1.69,1.69,1.69h20.29c.93,0,1.69-.76,1.69-1.69V2.51c0-.93-.75-1.69-1.69-1.69H2.51Z"/>
    <path class="cls-3" d="M51.55,54.93h3.38v-13.53h-3.38v13.53ZM38.02,41.4v3.38h-1.69c-.93,0-1.69.76-1.69,1.69v8.45h3.38v-6.76h3.38v6.76h3.39v-8.45c0-.93-.76-1.69-1.69-1.69h-1.69v-3.38h-3.38ZM7.58,48.17h10.15v-10.15H7.58v10.15ZM4.2,34.64h16.91v16.91H4.2v-16.91ZM46.48,31.26c-.93,0-1.69.76-1.69,1.69v8.45h3.38v-6.76h6.76v-3.38h-8.45ZM32.95,31.26c-.93,0-1.69.76-1.69,1.69v8.45h3.38v-6.76h6.76v-3.38h-8.45ZM2.51,31.26c-.93,0-1.69.76-1.69,1.69v20.29c0,.93.76,1.69,1.69,1.69h20.29c.93,0,1.69-.76,1.69-1.69v-20.29c0-.93-.75-1.69-1.69-1.69H2.51ZM38.02,17.73h10.15V7.58h-10.15v10.15ZM7.58,17.73h10.15V7.58H7.58v10.15ZM34.64,4.2h16.91v16.91h-16.91V4.2ZM4.2,4.2h16.91v16.91H4.2V4.2ZM32.95.82c-.93,0-1.69.76-1.69,1.69v20.29c0,.93.75,1.69,1.69,1.69h20.29c.93,0,1.69-.76,1.69-1.69V2.51c0-.93-.75-1.69-1.69-1.69h-20.29ZM2.51.82c-.93,0-1.69.76-1.69,1.69v20.29c0,.93.76,1.69,1.69,1.69h20.29c.93,0,1.69-.76,1.69-1.69V2.51c0-.93-.75-1.69-1.69-1.69H2.51Z"/>
  </g>
</svg>