<?xml version="1.0" encoding="UTF-8"?>
<svg id="Layer_1" data-name="Layer 1" xmlns="http://www.w3.org/2000/svg" viewBox="0 0 67.69 80">
  <defs>
    <style>
      .cls-1 {
        fill: #6bff50;
      }
    </style>
  </defs>
  <path class="cls-1" d="M9.23,0C4.16,0,0,4.16,0,9.23v43.08c0,3.99,2.6,7.38,6.15,8.65v9.81c0,5.07,4.16,9.23,9.23,9.23h24.62c5.07,0,9.23-4.16,9.23-9.23v-9.81c3.56-1.27,6.15-4.66,6.15-8.65V9.23c0-5.07-4.16-9.23-9.23-9.23H9.23ZM9.23,6.15h36.92c1.73,0,3.08,1.35,3.08,3.08v43.08c0,1.73-1.35,3.08-3.08,3.08H9.23c-1.73,0-3.08-1.35-3.08-3.08V9.23c0-1.73,1.35-3.08,3.08-3.08ZM12.31,12.31v12.31h30.77v-12.31H12.31ZM61.54,12.31v36.92h6.15V12.31h-6.15ZM12.31,30.77v6.15h6.15v-6.15h-6.15ZM24.62,30.77v6.15h6.15v-6.15h-6.15ZM36.92,30.77v6.15h6.15v-6.15h-6.15ZM12.31,43.08v6.15h6.15v-6.15h-6.15ZM24.62,43.08v6.15h6.15v-6.15h-6.15ZM36.92,43.08v6.15h6.15v-6.15h-6.15Z"/>
</svg>