<?xml version="1.0" encoding="UTF-8"?>
<svg id="Layer_1" data-name="Layer 1" xmlns="http://www.w3.org/2000/svg" viewBox="0 0 63.62 63.62">
  <defs>
    <style>
      .cls-1 {
        fill: #6bff4f;
      }
    </style>
  </defs>
  <path class="cls-1" d="M27.59,25.29h-.01c0,.83.23,1.46.72,1.97.43.44,1.04.81,1.8,1.12v-6.21c-.72.16-1.31.48-1.75.94-.52.53-.76,1.26-.76,2.18Z"/>
  <path class="cls-1" d="M33.42,35.15v6.28c.76-.2,1.38-.56,1.84-1.08.53-.6.79-1.31.79-2.16s-.24-1.43-.75-1.92c-.45-.44-1.08-.81-1.88-1.12Z"/>
  <path class="cls-1" d="M31.81,0C14.24,0,0,14.24,0,31.81s14.24,31.81,31.81,31.81,31.81-14.24,31.81-31.81S49.38,0,31.81,0ZM24.13,55.75l-.36-.12c-10.22-3.47-17.09-13.04-17.09-23.82S13.54,11.46,23.76,7.99l.36-.12v5.07l-.17.07c-7.6,3.19-12.51,10.57-12.51,18.79v.02c0,8.22,4.91,15.61,12.51,18.79l.17.07v5.07ZM38.24,45.33c-1.36.78-2.99,1.27-4.82,1.43v3.36h-3.3v-3.4c-2.65-.29-4.83-1.13-6.48-2.52-1.75-1.47-2.65-3.48-2.72-5.98v-.35h6.82l.03.31c.15,1.67.92,2.7,2.36,3.15v-7.14c-1.86-.48-3.38-.96-4.54-1.44-1.26-.52-2.35-1.35-3.26-2.48-.93-1.15-1.39-2.72-1.39-4.68,0-2.47.9-4.52,2.67-6.09,1.69-1.49,3.88-2.38,6.51-2.65v-3.36h3.3v3.36c2.54.26,4.63,1.08,6.18,2.43,1.62,1.42,2.56,3.41,2.76,5.9l.03.37h-6.88l-.03-.3c-.07-.73-.33-1.37-.76-1.9-.34-.41-.77-.74-1.29-.97v7c1.94.49,3.51.98,4.65,1.45,1.23.49,2.32,1.32,3.24,2.44.93,1.13,1.39,2.7,1.39,4.67,0,1.47-.38,2.88-1.13,4.17-.75,1.3-1.87,2.38-3.33,3.21ZM40.83,55.28l-.37.14v-5.16l.15-.08c7.02-3.37,11.56-10.59,11.56-18.37s-4.53-14.98-11.56-18.37l-.15-.08v-5.16l.37.14h0c9.64,3.73,16.12,13.15,16.12,23.47s-6.48,19.74-16.12,23.47Z"/>
</svg>