<?xml version="1.0" encoding="UTF-8"?>
<svg id="Camada_1" xmlns="http://www.w3.org/2000/svg" version="1.1" viewBox="0 0 80 80">
  <!-- Generator: Adobe Illustrator 29.8.2, SVG Export Plug-In . SVG Version: 2.1.1 Build 3)  -->
  <defs>
    <style>
      .st0 {
        fill: #68ff51;
      }
    </style>
  </defs>
  <path class="st0" d="M19.75,11.88c-3.7,0-6.75,3.05-6.75,6.75v40.49c0,3.7,3.05,6.75,6.75,6.75h21.75v-4.5h-21.75c-1.27,0-2.25-.98-2.25-2.25V18.63c0-1.27.98-2.25,2.25-2.25h20.25v13.5h13.5v5.62h4.5v-8.81l-14.82-14.82h-23.43ZM44.5,19.56l5.82,5.82h-5.82v-5.82Z"/>
  <path class="st0" d="M53.5,42.45v-3.95h4.5v3.95h4.5v4.73h-11.25c-1.27,0-2.25,1.03-2.25,2.37s.98,2.36,2.25,2.36h9c3.71,0,6.75,3.2,6.75,7.1s-3.04,6.86-6.75,6.86h-2.25v2.25h-4.5v-2.25h-9v-4.5h15.75c1.27,0,2.25-1.03,2.25-2.36s-.98-2.37-2.25-2.37h-9c-3.71,0-6.75-3.2-6.75-7.09s3.04-7.1,6.75-7.1h2.25Z"/>
</svg>