<svg width="749" height="124" viewBox="0 0 749 124" fill="none" xmlns="http://www.w3.org/2000/svg">
<g clip-path="url(#clip0_417_5225)">
<path d="M79.9225 55H90.5V107.963H79.3135V72.8567L49.8538 107.995H40.3576L11.2653 72.8567L11.1918 75.5381L11.2653 107.963H0V55H10.5776L45.2028 97.7758L79.9225 55Z" fill="#6BFF50"/>
<path d="M180.785 107.963L171.651 96.9418H115.556L106.269 107.963H96.8203L96.8413 104.068L138.16 55H148.968L190.218 104.068L190.197 107.963H180.785ZM123.015 87.9106H163.966L143.566 63.5721L123.015 87.9106Z" fill="#6BFF50"/>
<path d="M252.87 65.1028H220.219V107.963H209.032V65.1028H176.302V55H252.875V65.1028H252.87Z" fill="#6BFF50"/>
<path d="M337.076 64.4113H273.673V77.1163H331.9V86.2215H273.673V98.5412H337.076V107.952H262.786V55H337.076V64.4113Z" fill="#6BFF50"/>
<path d="M354.257 82.1677H406.279C410.489 82.1677 413.586 81.4393 415.565 79.9877C417.544 78.5309 418.536 76.3774 418.536 73.5218V73.4426C418.536 70.587 417.544 68.4281 415.565 66.9766C413.586 65.525 410.489 64.7966 406.279 64.7966H355.171L358.294 61.5821V107.963H347.407V55H406.279C414.347 55 420.221 56.6732 423.901 60.0144C427.581 63.3556 429.418 67.8106 429.418 73.3687V73.6009C429.418 77.0688 428.684 80.1567 427.208 82.8592C425.739 85.5617 423.261 87.6942 419.786 89.2513C416.311 90.8084 411.807 91.5843 406.274 91.5843H354.252V82.173L354.257 82.1677ZM403.009 85.4561L414.5 85.3031L430.71 107.958H418.379L403.003 85.4561H403.009Z" fill="#6BFF50"/>
<path d="M519.567 107.963L510.433 96.9418H454.337L445.051 107.963H435.602L435.623 104.068L476.941 55H487.75L529 104.068L528.979 107.963H519.567ZM461.797 87.9106H502.747L482.348 63.5721L461.797 87.9106Z" fill="#6BFF50"/>
</g>
<defs>
<clipPath id="clip0_417_5225">
<rect width="529" height="53" fill="white" transform="translate(0 55)"/>
</clipPath>
</defs>
</svg>
