<svg width="610" height="63" viewBox="0 0 610 63" fill="none" xmlns="http://www.w3.org/2000/svg">
<g clip-path="url(#clip0_408_4237)">
<path d="M92.1601 0H104.357V62.9561H91.4579V21.2259L57.4873 62.9937H46.5371L12.9902 21.2259L12.9054 24.4132L12.9902 62.9561H0V0H12.1972L52.1242 50.8467L92.1601 0Z" fill="#6BFF50"/>
<path d="M208.467 62.9561L197.934 49.8554H133.249L122.541 62.9561H111.645L111.67 58.3257L159.314 0H171.778L219.344 58.3257L219.32 62.9561H208.467ZM141.851 39.1201H189.072L165.549 10.1894L141.851 39.1201Z" fill="#6BFF50"/>
<path d="M291.589 12.009H253.938V62.9561H241.039V12.009H203.297V0H291.595V12.009H291.589Z" fill="#6BFF50"/>
<path d="M388.689 11.187H315.578V26.2892H382.72V37.1123H315.578V51.7565H388.689V62.9435H303.024V0H388.689V11.187Z" fill="#6BFF50"/>
<path d="M408.501 32.2937H468.488C473.343 32.2937 476.914 31.4278 479.196 29.7024C481.478 27.9707 482.622 25.4108 482.622 22.0164V21.9223C482.622 18.5279 481.478 15.9618 479.196 14.2363C476.914 12.5109 473.343 11.6451 468.488 11.6451H409.554L413.156 7.82402V62.9561H400.601V0H468.488C477.792 0 484.565 1.98895 488.809 5.96056C493.052 9.93218 495.17 15.2277 495.17 21.8345V22.1105C495.17 26.2327 494.323 29.9032 492.622 33.1156C490.927 36.3281 488.07 38.8629 484.063 40.7138C480.056 42.5647 474.862 43.487 468.482 43.487H408.495V32.3L408.501 32.2937ZM464.717 36.2026L477.967 36.0206L496.66 62.9498H482.441L464.711 36.2026H464.717Z" fill="#6BFF50"/>
<path d="M599.122 62.9561L588.59 49.8554H523.905L513.197 62.9561H502.301L502.325 58.3257L549.97 0H562.434L610 58.3257L609.976 62.9561H599.122ZM532.507 39.1201H579.728L556.205 10.1894L532.507 39.1201Z" fill="#6BFF50"/>
</g>
<defs>
<clipPath id="clip0_408_4237">
<rect width="610" height="63" fill="white"/>
</clipPath>
</defs>
</svg>
